HIERARCHY
ROOT Hips
{
 OFFSET 0.000000 0.000000 0.000000
 CHANNELS 6 Xposition Yposition Zposition Yrotation Xrotation Zrotation
 JOINT Chest
 {
  OFFSET 0.000000 10.080317 -0.001081
  CHANNELS 3 Yrotation Xrotation Zrotation
  JOINT Chest2
  {
   OFFSET 0.000000 11.096852 0.001963
   CHANNELS 3 Yrotation Xrotation Zrotation
   JOINT Chest3
   {
    OFFSET 0.000000 10.026525 0.000000
    CHANNELS 3 Yrotation Xrotation Zrotation
    JOINT Chest4
    {
     OFFSET 0.000000 10.026525 0.000000
     CHANNELS 3 Yrotation Xrotation Zrotation
     JOINT Neck
     {
      OFFSET 0.000000 14.108171 0.000000
      CHANNELS 3 Yrotation Xrotation Zrotation
      JOINT Head
      {
       OFFSET 0.000000 9.333493 0.004668
       CHANNELS 3 Yrotation Xrotation Zrotation
       End Site
       {
        OFFSET 0.000000 17.851786 0.002438
       }
      }
     }
     JOINT RightCollar
     {
      OFFSET -3.071622 7.873185 0.000000
      CHANNELS 3 Yrotation Xrotation Zrotation
      JOINT RightShoulder
      {
       OFFSET -14.378659 0.000000 0.000000
       CHANNELS 3 Yrotation Xrotation Zrotation
       JOINT RightElbow
       {
        OFFSET -30.778728 0.000000 0.000000
        CHANNELS 3 Yrotation Xrotation Zrotation
        JOINT RightWrist
        {
         OFFSET -25.164217 0.000000 0.000000
         CHANNELS 3 Yrotation Xrotation Zrotation
         End Site
         {
          OFFSET -18.796788 0.000000 0.000000
         }
        }
       }
      }
     }
     JOINT LeftCollar
     {
      OFFSET 3.071622 7.873185 0.000000
      CHANNELS 3 Yrotation Xrotation Zrotation
      JOINT LeftShoulder
      {
       OFFSET 14.378659 0.000000 0.000000
       CHANNELS 3 Yrotation Xrotation Zrotation
       JOINT LeftElbow
       {
        OFFSET 30.778728 0.000000 0.000000
        CHANNELS 3 Yrotation Xrotation Zrotation
        JOINT LeftWrist
        {
         OFFSET 25.164217 0.000000 0.000000
         CHANNELS 3 Yrotation Xrotation Zrotation
         End Site
         {
          OFFSET 18.796788 0.000000 0.000000
         }
        }
       }
      }
     }
    }
   }
  }
 }
 JOINT RightHip
 {
  OFFSET -8.194923 0.005295 0.000540
  CHANNELS 3 Yrotation Xrotation Zrotation
  JOINT RightKnee
  {
   OFFSET 0.000000 -42.473320 -0.000511
   CHANNELS 3 Yrotation Xrotation Zrotation
   JOINT RightAnkle
   {
    OFFSET 0.000000 -41.474259 -0.000865
    CHANNELS 3 Yrotation Xrotation Zrotation
    JOINT RightToe
    {
     OFFSET 0.000000 -7.354994 16.712725
     CHANNELS 3 Yrotation Xrotation Zrotation
     End Site
     {
      OFFSET 0.000000 -1.553903 6.764158
     }
    }
   }
  }
 }
 JOINT LeftHip
 {
  OFFSET 8.194923 0.005295 0.000540
  CHANNELS 3 Yrotation Xrotation Zrotation
  JOINT LeftKnee
  {
   OFFSET 0.000000 -42.473320 -0.000511
   CHANNELS 3 Yrotation Xrotation Zrotation
   JOINT LeftAnkle
   {
    OFFSET 0.000000 -41.474259 -0.000865
    CHANNELS 3 Yrotation Xrotation Zrotation
    JOINT LeftToe
    {
     OFFSET 0.000000 -7.354994 16.712725
     CHANNELS 3 Yrotation Xrotation Zrotation
     End Site
     {
      OFFSET 0.000000 -1.553903 6.764158
     }
    }
   }
  }
 }
}
MOTION
Frames: 8
Frame Time: 0.016667
0.000000 91.111157 0.000000 0.000000 -5.826342 0.000000 0.000000 11.116423 0.000000 0.000000 -5.290081 0.000000 0.000000 0.000000 0.000000 0.000000 0.000000 0.000000 0.000000 12.665069 0.000000 0.000000 0.575450 0.000000 0.000000 0.000000 0.000000 0.000000 0.000000 0.000000 2.337306 0.000000 0.000000 -2.337306 0.000000 0.000000 0.000000 0.000000 0.000000 0.000000 0.000000 0.000000 -2.337306 0.000000 0.000000 2.337306 0.000000 0.000000 0.000000 8.578828 0.000000 0.000000 1.905768 0.000000 0.000000 -4.658254 0.000000 0.000000 0.000000 0.000000 0.000000 8.578828 0.000000 0.000000 1.905768 0.000000 0.000000 -4.658254 0.000000 0.000000 0.000000 0.000000
-23.652893 91.748073 -295.141408 -11.043127 0.635827 0.448909 1.952247 4.701800 0.710057 0.951391 2.132693 0.395753 0.951391 2.132693 0.395753 0.712079 1.600141 0.293460 -8.235251 15.713829 1.226428 -15.789669 -6.409409 5.266799 -1.642134 -2.602741 11.183521 0.096113 -3.582886 63.511163 17.517235 12.563082 9.011802 -4.304628 2.978636 -10.291744 -5.224782 -2.031613 -8.575956 -4.045840 -10.833012 -66.816632 -20.449277 20.002083 -20.791253 6.340228 6.166607 17.195892 -18.104207 7.530022 -2.278180 -8.193098 3.508909 0.387623 -9.382657 -12.179112 3.056582 0.058167 0.093771 0.245279 -0.112907 -16.750383 6.836955 -1.098393 16.365152 -3.013267 7.503607 3.520431 -3.516656 -0.452053 -0.869864 -0.121342
-23.523739 91.798164 -294.921304 -11.165893 0.923490 0.553182 1.977411 4.677225 0.619598 0.962484 2.125302 0.389127 0.962484 2.125302 0.389127 0.720427 1.594595 0.288464 -8.272306 15.690710 1.281496 -15.880838 -6.439499 5.385001 -1.589554 -2.650838 11.184700 0.162120 -3.601952 63.701121 17.606213 12.554810 9.073267 -4.279578 2.966365 -10.270181 -5.198972 -2.083393 -8.542472 -4.061902 -10.725467 -66.752217 -20.644648 19.997048 -21.013855 6.346992 6.178683 17.121315 -18.205469 7.229711 -2.412131 -8.016529 3.589639 0.286901 -9.396135 -12.047004 3.154618 0.069932 -0.073429 0.293724 0.253114 -16.955492 6.521336 -1.468817 16.391459 -3.000196 7.727706 3.589542 -3.525079 -0.428535 -0.842698 -0.082696
-23.414783 91.852063 -294.708088 -11.260159 1.222561 0.643373 2.004676 4.640515 0.547827 0.975863 2.118675 0.382810 0.975863 2.118675 0.382810 0.730487 1.589623 0.283691 -8.327282 15.648098 1.330433 -16.005347 -6.504104 5.500897 -1.544789 -2.681268 11.174982 0.236295 -3.651187 63.874771 17.786971 12.552961 9.214890 -4.259896 2.969685 -10.241147 -5.200671 -2.119088 -8.504776 -4.120559 -10.660848 -66.668085 -20.798605 20.046778 -21.206676 6.374064 6.207258 17.021315 -18.339462 6.928585 -2.518094 -7.874193 3.660702 0.189575 -9.386772 -11.883806 3.253363 0.086373 -0.257621 0.324314 0.565003 -17.149165 6.247267 -1.696023 16.376141 -2.969505 7.802234 3.699271 -3.537942 -0.399665 -0.824629 -0.047615
-23.309383 91.900774 -294.519820 -11.311976 1.562107 0.755728 2.005183 4.591807 0.460060 0.987601 2.116014 0.376444 0.987601 2.116014 0.376444 0.739313 1.587624 0.278881 -8.375590 15.596289 1.364251 -16.113170 -6.588607 5.587831 -1.489283 -2.697537 11.145338 0.328290 -3.705376 64.044163 18.081037 12.582456 9.409522 -4.262451 2.988372 -10.231621 -5.236329 -2.137780 -8.459352 -4.193628 -10.633411 -66.568245 -20.911247 20.100089 -21.376391 6.401660 6.231254 16.964480 -18.513970 6.578200 -2.626867 -7.719543 3.719755 0.106910 -9.367953 -11.702131 3.324962 0.098873 -0.436310 0.352937 0.904611 -17.357955 5.934062 -2.004042 16.275225 -2.948577 7.943266 3.828273 -3.526911 -0.397476 -0.775352 -0.031406
-23.228024 91.936827 -294.348166 -11.356696 1.890239 0.831341 2.016169 4.561820 0.411660 0.997046 2.110717 0.371188 0.997046 2.110717 0.371188 0.746418 1.583649 0.274915 -8.421974 15.538821 1.388283 -16.214648 -6.685153 5.656860 -1.391584 -2.730575 11.092409 0.438929 -3.748165 64.208625 18.458977 12.626736 9.657845 -4.232200 3.005446 -10.230208 -5.256572 -2.181031 -8.407292 -4.279603 -10.611224 -66.472173 -20.975485 20.140165 -21.486980 6.427189 6.244642 16.909120 -18.717439 6.262793 -2.710888 -7.551912 3.759714 0.074412 -9.330652 -11.548497 3.361105 0.105031 -0.574578 0.369835 1.231851 -17.525812 5.681029 -2.374479 16.103390 -2.947634 8.081399 3.941908 -3.532249 -0.370453 -0.688422 -0.016368
-23.170510 91.964557 -294.178225 -11.387844 2.222953 0.907189 2.029126 4.548729 0.370263 1.005964 2.109318 0.368876 1.005964 2.109318 0.368876 0.753114 1.582602 0.273153 -8.465644 15.488376 1.396773 -16.304764 -6.771362 5.695215 -1.274298 -2.771795 11.041618 0.628139 -3.773363 64.306724 18.903237 12.630819 9.947468 -4.218696 3.002658 -10.242259 -5.276750 -2.223115 -8.353705 -4.369996 -10.615555 -66.399200 -20.989245 20.119077 -21.534920 6.438909 6.261983 16.859508 -18.917411 5.984571 -2.787807 -7.392184 3.738987 0.074116 -9.298850 -11.388980 3.367977 0.108322 -0.690663 0.382591 1.567474 -17.651654 5.435203 -2.743999 15.852400 -2.942432 8.207914 4.027190 -3.532228 -0.335357 -0.557535 -0.011315
-23.127516 91.987474 -294.020988 -11.376051 2.558910 1.005141 2.021686 4.517134 0.307982 1.014395 2.111465 0.366410 1.014395 2.111465 0.366410 0.759444 1.584212 0.271271 -8.501267 15.449374 1.405000 -16.378546 -6.837489 5.728661 -1.139083 -2.815562 11.011294 0.907442 -3.817286 64.325571 19.387040 12.574535 10.276242 -4.192345 3.011426 -10.228774 -5.307333 -2.286061 -8.320703 -4.449966 -10.641563 -66.294425 -20.948983 20.077927 -21.540434 6.458619 6.270110 16.824765 -19.118767 5.719608 -2.861634 -7.214218 3.673034 0.077781 -9.341022 -11.204089 3.372114 0.118848 -0.800659 0.385874 1.876377 -17.766367 5.156612 -3.078907 15.568292 -2.903589 8.318552 4.093184 -3.515367 -0.316418 -0.403485 -0.026410
